<svg width="238" height="238" viewBox="0 0 238 238" fill="none" xmlns="http://www.w3.org/2000/svg">
<g clip-path="url(#clip0_1125_3107)">
<path d="M233.454 147.166C217.626 210.648 153.321 249.283 89.8235 233.452C26.3527 217.626 -12.286 153.324 3.5493 89.8464C19.3707 26.3567 83.6756 -12.2806 147.153 3.54592C210.646 19.3725 249.283 83.6812 233.453 147.167L233.454 147.166H233.454Z" fill="white"/>
<path d="M117.535 48.5V99.1952C117.535 99.4104 117.32 99.6256 117.105 99.6256C115.598 100.284 114.307 100.935 112.8 101.587C110.864 102.454 108.712 103.327 106.775 104.416L99.6733 107.674L93.8627 110.288L86.761 113.552C84.8243 114.426 82.8876 115.292 80.7356 116.381C79.2289 117.032 77.5074 117.906 76.001 118.557C75.7859 118.557 75.7859 118.772 75.5707 118.557H75.3555C76.001 117.469 76.6466 116.596 77.2922 115.514C80.7356 109.636 84.3939 103.764 87.837 97.8856C91.4956 91.5832 95.3691 85.2688 99.0277 78.9604C102.471 73.0884 105.914 67.2164 109.357 61.5596C111.94 57.2003 114.522 53.0746 116.889 48.7152C117.32 48.7152 117.32 48.5 117.535 48.5Z" fill="#8C8C8C"/>
<path d="M159.285 118.557C156.056 120.734 152.613 122.689 149.385 124.645C138.84 130.959 128.511 137.052 117.966 143.361C117.751 143.361 117.751 143.576 117.535 143.576C117.32 143.576 117.32 143.361 117.32 143.361V99.6258C117.32 99.4106 117.536 99.4106 117.751 99.4106C118.611 99.841 119.472 100.284 120.548 100.714C123.131 102.024 125.928 103.112 128.511 104.415C130.878 105.504 133.03 106.592 135.397 107.459C137.764 108.547 139.916 109.636 142.284 110.724C144.22 111.597 146.372 112.464 148.309 113.552C150.246 114.425 152.398 115.293 154.335 116.381C155.841 117.033 157.348 117.905 159.069 118.557C159.069 118.342 159.069 118.557 159.285 118.557Z" fill="#02231E"/>
<path d="M117.535 186.223C117.319 186.223 117.319 186.223 117.104 186.001C112.8 179.914 108.711 174.036 104.407 167.943L91.4953 149.669C87.4063 143.798 83.1024 137.926 79.0134 131.826L75.7855 127.258C75.7855 127.042 75.5703 127.042 75.5703 126.827C75.7855 126.827 75.7855 127.042 76.0007 127.042C81.8109 130.523 87.8366 134.003 93.6472 137.483C100.319 141.621 107.205 145.538 113.876 149.669C114.952 150.321 116.243 150.973 117.319 151.625C117.535 151.625 117.535 151.846 117.535 152.061V186.223Z" fill="#8C8C8C"/>
<path d="M75.3555 116.28C75.3555 116.065 75.3555 116.065 75.3555 116.28C77.5074 115.192 79.6597 114.325 81.8116 113.236L90.2044 109.32C92.3564 108.231 94.5083 107.365 96.6606 106.276C99.6733 104.751 102.901 103.448 105.914 101.923C108.066 101.05 110.218 99.9614 112.37 99.0946C113.877 98.443 115.383 97.791 116.889 96.9178C117.105 96.9178 117.105 96.7026 117.32 96.7026V141.083C117.105 141.305 117.105 141.083 116.889 141.083C116.244 140.653 115.598 140.432 115.168 139.995L75.7859 116.501C75.5707 116.28 75.3555 116.28 75.3555 116.28ZM158.638 124.335C158.638 124.55 158.638 124.55 158.423 124.765C145.941 142.608 133.46 160.23 120.978 178.073C119.687 180.029 118.396 181.769 117.105 183.73V149.132C119.902 147.392 122.7 145.652 125.497 144.133L158.423 124.55C158.423 124.335 158.638 124.335 158.638 124.335Z" fill="#072723"/>
<path d="M117.539 99.4105V48.7275L158.858 117.912C159.073 118.127 159.288 118.342 159.288 118.563C158.427 118.133 157.566 117.69 156.49 117.26C155.414 116.823 154.338 116.172 153.262 115.735C152.617 115.52 151.971 115.083 151.11 114.862C150.035 114.432 148.743 113.774 147.667 113.343C147.021 113.122 146.376 112.692 145.73 112.47L141.211 110.515C140.35 110.078 139.705 109.863 138.844 109.427C137.768 108.99 136.692 108.338 135.616 107.902C134.97 107.687 134.325 107.25 133.679 107.035L129.16 105.073C128.299 104.643 127.653 104.422 126.793 103.985C125.717 103.555 124.641 102.897 123.564 102.46C122.919 102.03 122.058 101.809 121.413 101.378L117.539 99.4169V99.4105Z" fill="#072723"/>
</g>
<defs>
<clipPath id="clip0_1125_3107">
<rect width="237" height="237" fill="white" transform="translate(0.136719 0.365234)"/>
</clipPath>
</defs>
</svg>
