<svg width="238" height="238" viewBox="0 0 238 238" fill="none" xmlns="http://www.w3.org/2000/svg">
<g clip-path="url(#clip0_1125_3118)">
<path d="M233.454 147.166C217.626 210.648 153.321 249.283 89.8235 233.452C26.3527 217.626 -12.286 153.324 3.5493 89.8464C19.3707 26.3567 83.6756 -12.2806 147.153 3.54592C210.646 19.3725 249.283 83.6812 233.453 147.167L233.454 147.166H233.454Z" fill="#072821"/>
<path d="M191 118.699C191 166.306 161.866 181.582 146.516 167.98C133.88 156.889 130.121 133.452 111.116 131.046C86.9942 128.011 84.9057 160.133 69.0334 160.133C50.5504 160.133 47 133.243 47 119.431C47 105.306 50.9681 86.0542 66.736 86.0542C85.1146 86.0542 86.1588 113.572 109.132 112.107C132.001 110.538 132.418 81.8689 147.247 69.6271C160.195 59.0593 191 70.4641 191 118.699Z" fill="#97FCE4"/>
</g>
<defs>
<clipPath id="clip0_1125_3118">
<rect width="237" height="237" fill="white" transform="translate(0.136719 0.365234)"/>
</clipPath>
</defs>
</svg>
